<?xml version="1.0" encoding="UTF-8" standalone="no"?>
<svg
   xmlns:dc="http://purl.org/dc/elements/1.1/"
   xmlns:cc="http://creativecommons.org/ns#"
   xmlns:rdf="http://www.w3.org/1999/02/22-rdf-syntax-ns#"
   xmlns:svg="http://www.w3.org/2000/svg"
   xmlns="http://www.w3.org/2000/svg"
   viewBox="0 0 219.21201 190.68533"
   height="190.68533"
   width="219.21201"
   xml:space="preserve"
   id="svg2"
   version="1.1"><metadata
     id="metadata8"><rdf:RDF><cc:Work
         rdf:about=""><dc:format>image/svg+xml</dc:format><dc:type
           rdf:resource="http://purl.org/dc/dcmitype/StillImage" /></cc:Work></rdf:RDF></metadata><defs
     id="defs6"><clipPath
       id="clipPath18"
       clipPathUnits="userSpaceOnUse"><path
         id="path16"
         d="M 0,143.014 H 164.409 V 0 H 0 Z" /></clipPath></defs><g
     transform="matrix(1.3333333,0,0,-1.3333333,0,190.68533)"
     id="g10"><g
       id="g12"><g
         clip-path="url(#clipPath18)"
         id="g14"><g
           transform="translate(54.3628,86.2087)"
           id="g20"><path
             id="path22"
             style="fill:#00a760;fill-opacity:1;fill-rule:nonzero;stroke:none"
             d="M 0,0 C 0.801,-0.026 1.182,-0.445 1.156,-1.245 L 1.016,-5.374 C 0.991,-6.149 0.572,-6.53 -0.229,-6.505 l -10.799,0.381 c -0.813,0.026 -1.207,0.432 -1.181,1.22 l 0.14,4.116 c 0.025,0.813 0.457,1.195 1.257,1.169 l 3.1,-0.102 -0.076,-1.969 -2.604,0.089 -0.089,-2.566 9.833,-0.343 0.089,2.566 -2.782,0.089 0.063,1.97 z" /></g><g
           transform="translate(55.0488,90.1853)"
           id="g24"><path
             id="path26"
             style="fill:#00a760;fill-opacity:1;fill-rule:nonzero;stroke:none"
             d="M 0,0 0.889,2.566 -8.41,5.768 -9.3,3.201 Z m -10.393,1.486 c -0.774,0.267 -1.029,0.775 -0.774,1.512 l 1.397,4.066 c 0.267,0.749 0.788,1.003 1.55,0.736 L 1.995,4.282 C 2.757,4.015 3.011,3.506 2.757,2.744 L 1.347,-1.309 C 1.093,-2.046 0.585,-2.287 -0.177,-2.033 Z" /></g><g
           transform="translate(62.2015,101.3272)"
           id="g28"><path
             id="path30"
             style="fill:#00a760;fill-opacity:1;fill-rule:nonzero;stroke:none"
             d="M 0,0 C 0.635,-0.508 0.686,-1.067 0.178,-1.703 L -2.464,-4.968 C -2.973,-5.59 -3.532,-5.653 -4.167,-5.146 l -9.338,7.572 1.232,1.538 8.97,-7.254 1.677,2.07 -8.957,7.255 1.245,1.537 z" /></g><g
           transform="translate(69.7225,105.685)"
           id="g32"><path
             id="path34"
             style="fill:#00a760;fill-opacity:1;fill-rule:nonzero;stroke:none"
             d="M 0,0 -1.423,-0.991 -8.804,4.014 -3.925,-2.732 -5.501,-3.837 -13.085,7 l 1.422,0.991 7.267,-4.866 -4.777,6.607 1.576,1.118 z" /></g><g
           transform="translate(73.1656,119.0123)"
           id="g36"><path
             id="path38"
             style="fill:#00a760;fill-opacity:1;fill-rule:nonzero;stroke:none"
             d="m 0,0 -2.084,-0.673 3.558,-10.927 -1.881,-0.609 -3.544,10.926 -2.071,-0.674 -0.546,1.665 6.022,1.956 z" /></g><g
           transform="translate(84.4604,108.4546)"
           id="g40"><path
             id="path42"
             style="fill:#00a760;fill-opacity:1;fill-rule:nonzero;stroke:none"
             d="m 0,0 -2.058,-0.038 -2.287,6.111 c 0,0 -0.013,0.394 -0.026,1.182 L -2.427,7.292 -2.49,11.485 -4.993,11.447 -4.79,-0.089 -6.772,-0.127 -7,13.111 -1.753,13.2 c 0.8,0.013 1.207,-0.381 1.219,-1.194 L -0.457,7.191 C -0.445,6.632 -0.623,6.263 -1.004,6.098 -1.194,6.009 -1.627,5.959 -2.287,5.946 Z" /></g><g
           transform="translate(95.1068,119.6346)"
           id="g44"><path
             id="path46"
             style="fill:#00a760;fill-opacity:1;fill-rule:nonzero;stroke:none"
             d="m 0,0 -4.421,-7.496 -1.093,-4.738 -1.944,0.457 1.093,4.726 -0.673,8.677 1.994,-0.381 0.254,-5.958 2.821,5.247 C -1.969,0.534 0,0.013 0,0" /></g><g
           transform="translate(102.1067,101.4797)"
           id="g48"><path
             id="path50"
             style="fill:#00a760;fill-opacity:1;fill-rule:nonzero;stroke:none"
             d="M 0,0 C -0.495,-0.635 -1.067,-0.699 -1.702,-0.203 L -4.955,2.338 C -5.565,2.82 -5.628,3.38 -5.133,4.015 l 6.658,8.512 c 0.495,0.635 1.054,0.711 1.664,0.229 L 6.442,10.227 C 7.077,9.719 7.153,9.16 6.645,8.512 l -1.906,-2.439 -1.55,1.22 1.614,2.058 -2.02,1.575 -6.06,-7.75 2.02,-1.575 1.714,2.185 1.55,-1.207 z" /></g><g
           transform="translate(105.4608,94.9751)"
           id="g52"><path
             id="path54"
             style="fill:#00a760;fill-opacity:1;fill-rule:nonzero;stroke:none"
             d="M 0,0 -3.049,4.205 7.648,11.993 8.817,10.392 -0.457,3.646 1.436,1.041 Z" /></g><g
           transform="translate(109.2724,88.0127)"
           id="g56"><path
             id="path58"
             style="fill:#00a760;fill-opacity:1;fill-rule:nonzero;stroke:none"
             d="m 0,0 c -0.762,-0.254 -1.271,-0.013 -1.537,0.762 l -1.359,3.964 c -0.268,0.762 -0.013,1.271 0.749,1.537 L 9.211,10.176 9.846,8.309 -1.042,4.548 l 0.864,-2.515 10.901,3.76 0.635,-1.88 z" /></g><g
           transform="translate(120.3,81.9908)"
           id="g60"><path
             id="path62"
             style="fill:#00a760;fill-opacity:1;fill-rule:nonzero;stroke:none"
             d="M 0,0 -0.089,2.477 -3.964,2.338 -3.9,0.826 l 0.711,-0.94 z m -6.123,-0.267 0.609,1.004 -0.051,1.55 -4.408,-0.153 0.088,-2.528 z m -4.155,-2.134 c -0.801,-0.026 -1.22,0.368 -1.245,1.169 L -11.701,4.053 1.512,4.51 1.689,-0.737 C 1.715,-1.512 1.321,-1.919 0.508,-1.956 l -3.405,-0.115 c -0.432,-0.012 -0.787,0.115 -1.042,0.381 -0.038,0.038 -0.266,0.381 -0.698,1.017 -0.381,-0.687 -0.597,-1.055 -0.635,-1.093 -0.255,-0.305 -0.61,-0.483 -1.067,-0.495 z" /></g><g
           transform="translate(108.51,28.6816)"
           id="g64"><path
             id="path66"
             style="fill:#00a760;fill-opacity:1;fill-rule:nonzero;stroke:none"
             d="m 0,0 c 0,-0.355 -0.216,-0.546 -0.648,-0.546 h -2.211 c -0.418,0 -0.622,0.191 -0.622,0.546 v 4.904 c 0,0.369 0.216,0.547 0.635,0.547 h 2.198 C -0.216,5.451 0,5.273 0,4.904 V 3.622 H -1.054 V 4.688 H -2.427 V 0.229 h 1.373 V 1.906 H -1.842 V 2.668 H 0 Z m 4.358,0 c 0,-0.355 -0.216,-0.546 -0.648,-0.546 H 1.474 C 1.042,-0.546 0.839,-0.355 0.839,0 V 5.451 H 1.893 V 0.229 h 1.41 V 5.451 H 4.358 Z M 8.119,-0.546 H 5.197 V 5.451 H 8.081 V 4.663 H 6.251 V 2.909 H 7.826 V 2.135 H 6.251 v -1.88 h 1.868 z m 4.294,0 H 11.32 l -1.156,2.795 v 0.534 h 1.029 V 4.688 H 9.871 V -0.546 H 8.817 v 5.997 h 2.795 c 0.42,0 0.635,-0.178 0.635,-0.547 V 2.719 C 12.247,2.465 12.146,2.3 11.943,2.237 11.828,2.198 11.612,2.173 11.257,2.173 Z m -19.654,0 c -0.419,0 -0.623,0.191 -0.623,0.546 v 4.904 c 0,0.369 0.204,0.547 0.623,0.547 h 2.274 c 0.432,0 0.648,-0.178 0.648,-0.547 V 0 c 0,-0.355 -0.216,-0.546 -0.648,-0.546 z m 1.867,5.234 H -6.822 V 0.229 h 1.448 z M -15.398,1.309 h -1.118 v 0.992 h 1.118 z m 3.519,-1.855 h -2.769 v 5.997 h 1.054 V 0.255 h 1.715 z m 3.38,0 h -2.757 v 5.997 h 1.054 V 0.255 h 1.703 z m -9.923,1.906 -0.52,2.706 V 4.053 L -19.451,1.36 Z m -1.169,-0.763 -0.216,-1.143 h -1.041 v 0.026 l 1.372,5.983 h 1.105 l 1.347,-6.009 h -1.042 l -0.216,1.143 z m -5.31,-1.143 v 5.997 h 2.147 c 0.406,0 0.737,-0.102 0.991,-0.305 0.241,-0.203 0.369,-0.483 0.369,-0.826 V 0.585 c 0,-0.343 -0.128,-0.623 -0.369,-0.826 -0.254,-0.204 -0.585,-0.305 -0.991,-0.305 z m 1.804,0.775 c 0.432,0 0.648,0.165 0.648,0.508 V 4.18 c 0,0.33 -0.216,0.508 -0.622,0.508 h -0.776 V 0.229 Z m -14.687,1.08 h -1.131 v 0.992 h 1.131 z m 4.244,4.142 -1.347,-5.997 h -1.042 l -1.346,5.997 h 1.054 l 0.788,-4.104 c 0.013,-0.127 0.013,-0.292 0.025,-0.521 0,0.127 0.013,0.292 0.026,0.521 l 0.8,4.104 z m 3.519,-5.997 h -2.922 v 5.997 h 2.884 V 4.663 h -1.83 V 2.909 h 1.576 V 2.135 h -1.576 v -1.88 h 1.868 z m 4.269,0 h -0.915 l -1.69,3.773 c 0.051,-0.178 0.077,-0.318 0.077,-0.432 v -3.341 h -1.03 v 5.997 h 0.928 l 1.677,-3.697 c -0.038,0.19 -0.064,0.33 -0.064,0.432 v 3.265 h 1.017 z m -16.237,1.143 -0.203,-1.143 h -1.042 v 0.026 l 1.359,5.983 h 1.106 l 1.359,-6.009 h -1.054 l -0.204,1.143 z m 0.661,3.456 -0.521,-2.693 h 1.029 l -0.508,2.706 z m -2.3,-4.599 h -1.092 l -1.156,2.795 v 0.534 h 1.029 v 1.905 h -1.322 v -5.234 h -1.054 v 5.997 h 2.795 c 0.419,0 0.635,-0.178 0.635,-0.547 V 2.719 c 0,-0.254 -0.102,-0.419 -0.305,-0.482 -0.114,-0.039 -0.33,-0.064 -0.686,-0.064 z m -6.683,2.172 v -2.172 h -1.054 v 5.997 h 2.757 c 0.432,0 0.648,-0.178 0.648,-0.547 V 2.186 c 0,-0.369 -0.216,-0.56 -0.648,-0.56 z m 1.284,3.062 H -50.31 V 2.401 h 1.283 z m -3.176,-5.234 h -1.004 v 2.96 c 0,0.153 0.012,0.369 0.063,0.648 L -54.058,0 h -0.534 l -0.915,3.062 c 0.051,-0.279 0.064,-0.495 0.064,-0.648 v -2.96 h -1.004 v 5.997 h 0.991 l 1.105,-3.316 c 0.013,-0.025 0.013,-0.127 0.026,-0.267 0,0.064 0.013,0.153 0.025,0.267 l 1.105,3.316 h 0.992 z M -61.669,0 c 0,-0.355 -0.216,-0.546 -0.634,-0.546 h -2.199 c -0.419,0 -0.622,0.191 -0.622,0.546 v 4.904 c 0,0.369 0.203,0.547 0.622,0.547 h 2.199 c 0.418,0 0.634,-0.178 0.634,-0.547 v -1.41 h -1.041 v 1.194 h -1.36 V 0.229 h 1.36 v 1.258 h 1.041 z m 1.462,-0.546 c -0.42,0 -0.636,0.191 -0.636,0.546 v 4.904 c 0,0.369 0.216,0.547 0.636,0.547 h 2.274 c 0.432,0 0.635,-0.178 0.635,-0.547 V 0 c 0,-0.355 -0.203,-0.546 -0.635,-0.546 z m 1.867,5.234 h -1.449 V 0.229 h 1.449 z" /></g><g
           transform="translate(118.2675,66.9835)"
           id="g68"><path
             id="path70"
             style="fill:#293d9b;fill-opacity:1;fill-rule:nonzero;stroke:none"
             d="m 0,0 c -0.993,0 -1.885,-0.241 -2.573,-0.662 -0.688,-0.408 -1.593,-0.651 -2.586,-0.651 -0.993,0 -1.898,0.243 -2.586,0.663 C -8.433,-0.241 -9.35,0 -10.331,0 c -0.993,0 -1.898,-0.241 -2.586,-0.662 -0.688,-0.408 -1.604,-0.651 -2.586,-0.651 -0.993,0 -1.898,0.243 -2.586,0.663 -0.172,0.101 -0.357,0.191 -0.552,0.27 3.622,4.118 5.823,9.512 5.823,15.409 0,12.87 -10.502,23.386 -23.384,23.386 -12.87,0 -23.385,-10.516 -23.385,-23.386 0,-5.899 2.206,-11.295 5.831,-15.413 -0.194,-0.082 -0.378,-0.174 -0.547,-0.278 -0.688,-0.408 -1.593,-0.651 -2.587,-0.651 -0.98,0 -1.898,0.243 -2.585,0.663 -0.688,0.409 -1.593,0.65 -2.586,0.65 -0.994,0 -1.898,-0.241 -2.586,-0.662 -0.688,-0.408 -1.593,-0.651 -2.586,-0.651 -0.993,0 -1.898,0.243 -2.586,0.663 -0.688,0.409 -1.591,0.65 -2.586,0.65 -0.993,0 -1.898,-0.241 -2.586,-0.662 V -28.954 H 2.586 V -0.662 C 1.898,-0.241 0.994,0 0,0" /></g><g
           transform="translate(111.7384,43.1342)"
           id="g72"><path
             id="path74"
             style="fill:#ffffff;fill-opacity:1;fill-rule:nonzero;stroke:none"
             d="m 0,0 -0.342,-1.116 h -1.706 v 0.013 L 0.184,4.806 H 1.996 L 4.215,-1.116 H 2.508 L 2.153,0 Z M 1.077,3.427 0.223,0.762 H 1.917 Z M -11.688,0 -12.03,-1.116 h -1.707 v 0.013 l 2.233,5.909 h 1.812 l 2.219,-5.922 H -9.18 L -9.534,0 Z m 1.077,3.427 -0.853,-2.665 H -9.77 Z M -35.208,0 -35.55,-1.116 h -1.706 v 0.013 l 2.232,5.909 h 1.812 l 2.219,-5.922 H -32.7 L -33.055,0 Z m 1.076,3.427 -0.853,-2.665 h 1.694 z m 32.444,1.366 -2.206,-5.922 h -1.72 L -7.82,4.793 h 1.733 l 1.339,-4.557 1.34,4.557 z m -12.679,-5.909 h -1.798 l -1.905,2.745 v 0.537 h 1.695 v 1.866 h -2.167 v -5.148 h -1.734 v 5.909 h 4.583 c 0.682,0 1.037,-0.184 1.037,-0.539 V 2.102 c 0,-0.251 -0.171,-0.408 -0.498,-0.488 -0.172,-0.038 -0.551,-0.052 -1.117,-0.052 z m -9.861,3.44 0.827,0.302 v 1.432 h -2.153 V 2.324 Z m 0.867,-2.692 v 1.681 l -0.841,0.289 h -1.352 v -1.97 z m -3.926,-0.748 v 5.909 h 4.582 c 0.683,0 1.024,-0.184 1.024,-0.539 V 2.731 c 0,-0.197 -0.131,-0.355 -0.368,-0.472 -0.039,-0.013 -0.34,-0.106 -0.905,-0.29 0.591,-0.183 0.893,-0.289 0.932,-0.301 0.263,-0.118 0.394,-0.276 0.394,-0.487 v -1.759 c 0,-0.354 -0.342,-0.538 -1.051,-0.538 z m -16.432,0.538 c 0,-0.354 -0.342,-0.538 -1.039,-0.538 h -3.466 c -0.696,0 -1.037,0.184 -1.037,0.538 v 1.406 h 1.72 v -1.196 h 2.101 v 1.156 l -3.454,1.681 c -0.249,0.118 -0.367,0.276 -0.367,0.473 v 1.312 c 0,0.355 0.341,0.539 1.037,0.539 h 3.466 c 0.697,0 1.039,-0.171 1.039,-0.539 V 2.942 h -1.721 v 1.116 h -2.101 V 2.98 l 3.453,-1.667 c 0.25,-0.118 0.369,-0.276 0.369,-0.485 z m 6.381,4.596 h -1.905 v -5.134 h -1.706 v 5.134 h -1.905 v 0.775 h 5.516 z m -20.445,-4.596 c 0,-0.354 -0.354,-0.538 -1.063,-0.538 h -3.585 c -0.683,0 -1.024,0.184 -1.024,0.538 v 4.832 c 0,0.355 0.341,0.539 1.024,0.539 h 3.585 c 0.709,0 1.063,-0.184 1.063,-0.539 V 2.875 h -1.72 v 1.157 h -2.233 v -4.386 h 2.233 v 1.247 h 1.72 z m 2.377,-0.538 c -0.683,0 -1.024,0.184 -1.024,0.538 v 4.832 c 0,0.355 0.341,0.539 1.024,0.539 h 3.742 c 0.696,0 1.038,-0.184 1.038,-0.539 v -4.832 c 0,-0.354 -0.342,-0.538 -1.038,-0.538 z m 3.059,5.148 h -2.363 v -4.386 h 2.363 z" /></g><g
           transform="translate(98.0645,50.6032)"
           id="g76"><path
             id="path78"
             style="fill:#ffffff;fill-opacity:1;fill-rule:nonzero;stroke:none"
             d="m 0,0 h -12.521 v 10.075 h 4.763 V 1.35 L 0,1.35 Z M 18.088,0.929 C 18.088,0.306 17.12,0 15.197,0 H 5.618 C 3.707,0 2.751,0.306 2.751,0.929 V 3.325 H 7.503 V 1.273 h 5.822 V 3.248 L 3.783,6.114 C 3.096,6.331 2.751,6.598 2.751,6.917 v 2.254 c 0,0.6 0.956,0.904 2.867,0.904 h 9.579 c 1.923,0 2.891,-0.304 2.891,-0.891 V 6.917 H 13.325 V 8.828 H 7.503 V 7.007 L 17.044,4.152 C 17.745,3.935 18.088,3.668 18.088,3.325 Z M -21.299,10.101 -15.171,0 h -4.726 l -0.968,1.911 h -5.949 L -27.782,0 h -4.701 v 0.026 l 6.166,10.075 z M -23.859,7.744 -26.19,3.21 h 4.662 z M -45.31,3.655 V 0 h -4.764 v 10.075 h 12.471 c 1.948,0 2.904,-0.304 2.904,-0.904 V 4.598 c 0,-0.624 -0.956,-0.943 -2.904,-0.943 z m 5.821,5.147 H -45.31 V 4.955 h 5.821 z" /></g><g
           transform="translate(62.662,88.0253)"
           id="g80"><path
             id="path82"
             style="fill:#ffffff;fill-opacity:1;fill-rule:nonzero;stroke:none"
             d="m 0,0 8.316,5.484 v 6.35 h 4.28 V 8.213 l 6.97,4.449 L 39.509,0 H 30.676 L 19.566,7.383 8.005,0.103 Z" /></g><g
           transform="translate(62.662,88.0253)"
           id="g84"><path
             id="path86"
             style="fill:none;stroke:#ffffff;stroke-width:0.273;stroke-linecap:butt;stroke-linejoin:miter;stroke-miterlimit:3.86400008;stroke-dasharray:none;stroke-opacity:1"
             d="m 0,0 8.316,5.484 v 6.35 h 4.28 V 8.213 l 6.97,4.449 L 39.509,0 H 30.676 L 19.566,7.383 8.005,0.103 Z" /></g><g
           transform="translate(81.6322,79.8936)"
           id="g88"><path
             id="path90"
             style="fill:#ffffff;fill-opacity:1;fill-rule:nonzero;stroke:none"
             d="M 0,0 2.368,-2.638 C 2.219,-3.625 3.452,-4.957 3.452,-4.957 H 2.121 v -3.995 c -0.445,-0.296 -0.74,-1.257 -0.74,-1.257 l 0.246,-0.938 c -0.888,-0.985 0.296,-2.416 0.296,-2.416 l 0.049,-1.381 -0.542,-1.184 0.05,-1.628 c -0.938,-0.395 -1.332,-1.701 -1.332,-1.701 l -1.086,1.479 -0.838,0.814 v 12.257 h -1.258 c 0,0 1.159,1.085 1.159,2.219 z" /></g><g
           transform="translate(81.6322,79.8936)"
           id="g92"><path
             id="path94"
             style="fill:none;stroke:#ffffff;stroke-width:0.273;stroke-linecap:butt;stroke-linejoin:miter;stroke-miterlimit:3.86400008;stroke-dasharray:none;stroke-opacity:1"
             d="M 0,0 2.368,-2.638 C 2.219,-3.625 3.452,-4.957 3.452,-4.957 H 2.121 v -3.995 c -0.445,-0.296 -0.74,-1.257 -0.74,-1.257 l 0.246,-0.938 c -0.888,-0.985 0.296,-2.416 0.296,-2.416 l 0.049,-1.381 -0.542,-1.184 0.05,-1.628 c -0.938,-0.395 -1.332,-1.701 -1.332,-1.701 l -1.086,1.479 -0.838,0.814 v 12.257 h -1.258 c 0,0 1.159,1.085 1.159,2.219 z" /></g><g
           transform="translate(75.4953,83.4557)"
           id="g96"><path
             id="path98"
             style="fill:#ffffff;fill-opacity:1;fill-rule:nonzero;stroke:none"
             d="m 0,0 c 0,3.656 2.964,6.62 6.621,6.62 3.656,0 6.62,-2.964 6.62,-6.62 0,-3.657 -2.964,-6.621 -6.62,-6.621 C 2.964,-6.621 0,-3.657 0,0" /></g><g
           transform="translate(80.3448,86.1757)"
           id="g100"><path
             id="path102"
             style="fill:#293d9b;fill-opacity:1;fill-rule:nonzero;stroke:none"
             d="M 0,0 C 0,1.049 0.85,1.898 1.898,1.898 2.947,1.898 3.796,1.049 3.796,0 3.796,-1.049 2.947,-1.898 1.898,-1.898 0.85,-1.898 0,-1.049 0,0" /></g><g
           transform="translate(80.3448,86.1757)"
           id="g104"><path
             id="path106"
             style="fill:none;stroke:#293d9b;stroke-width:0.273;stroke-linecap:butt;stroke-linejoin:miter;stroke-miterlimit:3.86400008;stroke-dasharray:none;stroke-opacity:1"
             d="M 0,0 C 0,1.049 0.85,1.898 1.898,1.898 2.947,1.898 3.796,1.049 3.796,0 3.796,-1.049 2.947,-1.898 1.898,-1.898 0.85,-1.898 0,-1.049 0,0 Z" /></g></g></g></g></svg>