<svg width="111" height="130" viewBox="0 0 111 130" fill="none" xmlns="http://www.w3.org/2000/svg">
<mask id="mask0_164_1199" style="mask-type:luminance" maskUnits="userSpaceOnUse" x="0" y="0" width="111" height="130">
<path d="M0 1.36885e-06H111V130H0V1.36885e-06Z" fill="white"/>
</mask>
<g mask="url(#mask0_164_1199)">
<path d="M19.4834 49.7404C20.5514 49.7751 21.0594 50.3337 21.0247 51.4004L20.8381 56.9057C20.8047 57.9391 20.2461 58.4471 19.1781 58.4137L4.7794 57.9057C3.6954 57.8711 3.17007 57.3297 3.20473 56.2791L3.3914 50.7911C3.42473 49.7071 4.00073 49.1977 5.0674 49.2324L9.20073 49.3684L9.0994 51.9937L5.6274 51.8751L5.50873 55.2964L18.6194 55.7537L18.7381 52.3324L15.0287 52.2137L15.1127 49.5871L19.4834 49.7404Z" fill="#00A760"/>
<path d="M20.3985 44.4383L21.5838 41.017L9.18515 36.7477L7.99848 40.1703L20.3985 44.4383ZM6.54115 42.457C5.50915 42.101 5.16915 41.4237 5.50915 40.441L7.37181 35.0197C7.72781 34.021 8.42248 33.6823 9.43848 34.0383L23.0585 38.729C24.0745 39.085 24.4131 39.7637 24.0745 40.7797L22.1945 46.1837C21.8558 47.1663 21.1785 47.4877 20.1625 47.149L6.54115 42.457Z" fill="#00A760"/>
<path d="M29.9354 29.5824C30.782 30.2597 30.85 31.0051 30.1727 31.8531L26.65 36.2064C25.9714 37.0357 25.226 37.1197 24.3794 36.4437L11.9287 26.3477L13.5714 24.2971L25.5314 33.9691L27.7674 31.2091L15.8247 21.5357L17.4847 19.4864L29.9354 29.5824Z" fill="#00A760"/>
<path d="M39.9633 23.7719L38.0659 25.0933L28.2246 18.4199L34.7299 27.4146L32.6286 28.8879L22.5166 14.4386L24.4126 13.1173L34.1019 19.6053L27.7326 10.7959L29.8339 9.30527L39.9633 23.7719Z" fill="#00A760"/>
<path d="M44.5542 6.0021L41.7755 6.89943L46.5195 21.4688L44.0115 22.2808L39.2862 7.71276L36.5249 8.61143L35.7969 6.39143L43.8262 3.78343L44.5542 6.0021Z" fill="#00A760"/>
<path d="M59.6136 20.0792L56.8696 20.1299L53.8203 11.9819C53.8203 11.9819 53.8029 11.4565 53.7856 10.4059L56.3776 10.3565L56.2936 4.76587L52.9563 4.81654L53.2269 20.1979L50.5843 20.2485L50.2803 2.59787L57.2763 2.4792C58.3429 2.46187 58.8856 2.9872 58.9016 4.0712L59.0043 10.4912C59.0203 11.2365 58.7829 11.7285 58.2749 11.9485C58.0216 12.0672 57.4443 12.1339 56.5643 12.1512L59.6136 20.0792Z" fill="#00A760"/>
<path d="M73.8083 5.17238L67.9136 15.167L66.4563 21.4844L63.8643 20.875L65.3216 14.5737L64.4243 3.00438L67.0829 3.51238L67.4216 11.4564L71.1829 4.46038C71.1829 4.46038 73.8083 5.15504 73.8083 5.17238Z" fill="#00A760"/>
<path d="M83.1418 29.3789C82.4818 30.2256 81.7192 30.3109 80.8725 29.6496L76.5352 26.2616C75.7218 25.6189 75.6378 24.8723 76.2978 24.0256L85.1752 12.6763C85.8352 11.8296 86.5805 11.7283 87.3938 12.3709L91.7312 15.7429C92.5778 16.4203 92.6792 17.1656 92.0018 18.0296L89.4605 21.2816L87.3938 19.6549L89.5458 16.9109L86.8525 14.8109L78.7725 25.1443L81.4658 27.2443L83.7512 24.3309L85.8178 25.9403L83.1418 29.3789Z" fill="#00A760"/>
<path d="M87.6142 38.0518L83.5488 32.4451L97.8115 22.0611L99.3702 24.1958L87.0048 33.1904L89.5288 36.6638L87.6142 38.0518Z" fill="#00A760"/>
<path d="M92.6963 47.3349C91.6803 47.6736 91.0016 47.3522 90.647 46.3189L88.835 41.0336C88.4776 40.0176 88.8176 39.3389 89.8336 38.9842L104.978 33.7669L105.824 36.2562L91.307 41.2709L92.459 44.6242L106.994 39.6109L107.84 42.1176L92.6963 47.3349Z" fill="#00A760"/>
<path d="M107.399 55.3642L107.281 52.0615L102.114 52.2469L102.199 54.2629L103.147 55.5162L107.399 55.3642ZM99.2352 55.7202L100.047 54.3815L99.9792 52.3149L94.1019 52.5189L94.2192 55.8895L99.2352 55.7202ZM93.6952 58.5655C92.6272 58.6002 92.0685 58.0749 92.0352 57.0069L91.7979 49.9602L109.415 49.3509L109.651 56.3469C109.686 57.3802 109.161 57.9229 108.077 57.9722L103.537 58.1255C102.961 58.1415 102.487 57.9722 102.147 57.6175C102.097 57.5669 101.793 57.1095 101.217 56.2615C100.709 57.1775 100.421 57.6682 100.37 57.7189C100.03 58.1255 99.5565 58.3629 98.9472 58.3789L93.6952 58.5655Z" fill="#00A760"/>
<path d="M91.6797 126.443C91.6797 126.916 91.3916 127.171 90.8156 127.171H87.8677C87.3103 127.171 87.0383 126.916 87.0383 126.443V119.904C87.0383 119.412 87.3263 119.175 87.885 119.175H90.8156C91.3916 119.175 91.6797 119.412 91.6797 119.904V121.614H90.2743V120.192H88.4436V126.138H90.2743V123.902H89.2237V122.886H91.6797V126.443ZM97.4903 126.443C97.4903 126.916 97.2023 127.171 96.6263 127.171H93.645C93.069 127.171 92.7983 126.916 92.7983 126.443V119.175H94.2036V126.138H96.0837V119.175H97.4903V126.443ZM102.505 127.171H98.609V119.175H102.454V120.226H100.014V122.564H102.114V123.596H100.014V126.103H102.505V127.171ZM108.23 127.171H106.773L105.232 123.444V122.732H106.604V120.192H104.841V127.171H103.436V119.175H107.162C107.722 119.175 108.009 119.412 108.009 119.904V122.818C108.009 123.156 107.874 123.376 107.604 123.46C107.45 123.512 107.162 123.546 106.689 123.546L108.23 127.171ZM82.025 127.171C81.4663 127.171 81.1943 126.916 81.1943 126.443V119.904C81.1943 119.412 81.4663 119.175 82.025 119.175H85.057C85.633 119.175 85.921 119.412 85.921 119.904V126.443C85.921 126.916 85.633 127.171 85.057 127.171H82.025ZM84.5143 120.192H82.5837V126.138H84.5143V120.192ZM71.149 124.698H69.6583V123.375H71.149V124.698ZM75.841 127.171H72.149V119.175H73.5543V126.103H75.841V127.171ZM80.3477 127.171H76.6717V119.175H78.077V126.103H80.3477V127.171ZM67.117 124.63L66.4237 121.022V121.039L65.745 124.63H67.117ZM65.5583 125.647L65.2703 127.171H63.8823V127.136L65.7117 119.159H67.185L68.981 127.171H67.5917L67.3037 125.647H65.5583ZM58.4783 127.171V119.175H61.341C61.8823 119.175 62.3237 119.311 62.6623 119.582C62.9837 119.852 63.1543 120.226 63.1543 120.683V125.663C63.1543 126.12 62.9837 126.494 62.6623 126.764C62.3237 127.036 61.8823 127.171 61.341 127.171H58.4783ZM60.8837 126.138C61.4597 126.138 61.7477 125.918 61.7477 125.46V120.87C61.7477 120.43 61.4597 120.192 60.9183 120.192H59.8837V126.138H60.8837ZM41.301 124.698H39.793V123.375H41.301V124.698ZM46.9597 119.175L45.1637 127.171H43.7743L41.9797 119.175H43.385L44.4357 124.647C44.453 124.816 44.453 125.036 44.469 125.342C44.469 125.172 44.4863 124.952 44.5037 124.647L45.5703 119.175H46.9597ZM51.6517 127.171H47.7557V119.175H51.601V120.226H49.161V122.564H51.2623V123.596H49.161V126.103H51.6517V127.171ZM57.3437 127.171H56.1237L53.8703 122.14C53.9383 122.378 53.973 122.564 53.973 122.716V127.171H52.5997V119.175H53.837L56.073 124.104C56.0223 123.851 55.9877 123.664 55.9877 123.528V119.175H57.3437V127.171ZM35.6943 125.647L35.4237 127.171H34.0343V127.136L35.8463 119.159H37.321L39.133 127.171H37.7277L37.4557 125.647H35.6943ZM36.5757 121.039L35.881 124.63H37.253L36.5757 121.022V121.039ZM33.509 127.171H32.053L30.5117 123.444V122.732H31.8837V120.192H30.121V127.171H28.7157V119.175H32.4423C33.001 119.175 33.289 119.412 33.289 119.904V122.818C33.289 123.156 33.153 123.376 32.8823 123.46C32.7303 123.512 32.4423 123.546 31.9677 123.546L33.509 127.171ZM24.5983 124.275V127.171H23.193V119.175H26.869C27.445 119.175 27.733 119.412 27.733 119.904V123.528C27.733 124.02 27.445 124.275 26.869 124.275H24.5983ZM26.3103 120.192H24.5997V123.242H26.3103V120.192ZM22.0757 127.171H20.737V123.224C20.737 123.02 20.753 122.732 20.821 122.36L19.6023 126.443H18.8903L17.6703 122.36C17.7383 122.732 17.7557 123.02 17.7557 123.224V127.171H16.417V119.175H17.7383L19.2117 123.596C19.229 123.63 19.229 123.766 19.2463 123.952C19.2463 123.867 19.2637 123.748 19.2797 123.596L20.753 119.175H22.0757V127.171ZM9.45433 126.443C9.45433 126.916 9.16632 127.171 8.60899 127.171H5.67699C5.11833 127.171 4.84766 126.916 4.84766 126.443V119.904C4.84766 119.412 5.11833 119.175 5.67699 119.175H8.60899C9.16632 119.175 9.45433 119.412 9.45433 119.904V121.784H8.06632V120.192H6.25299V126.138H8.06632V124.46H9.45433V126.443ZM11.4037 127.171C10.8437 127.171 10.5557 126.916 10.5557 126.443V119.904C10.5557 119.412 10.8437 119.175 11.4037 119.175H14.4357C15.0117 119.175 15.2823 119.412 15.2823 119.904V126.443C15.2823 126.916 15.0117 127.171 14.4357 127.171H11.4037ZM13.893 120.192H11.961V126.138H13.893V120.192Z" fill="#00A760"/>
<path d="M104.69 75.3739C103.366 75.3739 102.177 75.6953 101.259 76.2566C100.342 76.8006 99.1355 77.1246 97.8115 77.1246C96.4875 77.1246 95.2808 76.8006 94.3635 76.2406C93.4461 75.6952 92.2235 75.3739 90.9155 75.3739C89.5915 75.3739 88.3848 75.6953 87.4675 76.2566C86.5501 76.8006 85.3288 77.1246 84.0195 77.1246C82.6955 77.1246 81.4888 76.8006 80.5715 76.2406C80.3421 76.1059 80.0955 75.9859 79.8355 75.8806C84.6648 70.3899 87.5995 63.1979 87.5995 55.3352C87.5995 38.1753 73.5968 24.1539 56.4208 24.1539C39.2608 24.1539 25.2408 38.1753 25.2408 55.3352C25.2408 63.2006 28.1821 70.3953 33.0155 75.8859C32.7568 75.9953 32.5115 76.1179 32.2861 76.2566C31.3688 76.8006 30.1621 77.1246 28.8368 77.1246C27.5301 77.1246 26.3061 76.8006 25.3901 76.2406C24.4728 75.6952 23.2661 75.3739 21.9421 75.3739C20.6168 75.3739 19.4115 75.6953 18.4941 76.2566C17.5768 76.8006 16.3701 77.1246 15.0461 77.1246C13.7221 77.1246 12.5155 76.8006 11.5981 76.2406C10.6808 75.6952 9.47681 75.3739 8.15015 75.3739C6.82615 75.3739 5.61948 75.6953 4.70215 76.2566V113.979H108.138V76.2566C107.221 75.6953 106.015 75.3739 104.69 75.3739Z" fill="#293D9B"/>
<path d="M95.9846 107.173L95.5286 108.661H93.2539V108.644L96.2299 100.765H98.6459L101.605 108.661H99.3286L98.8553 107.173H95.9846ZM97.4206 102.604L96.2819 106.157H98.5406L97.4206 102.604ZM80.4006 107.173L79.9446 108.661H77.6686V108.644L80.6459 100.765H83.0619L86.0206 108.661H83.7446L83.2726 107.173H80.4006ZM81.8366 102.604L80.6993 106.157H82.9579L81.8366 102.604ZM49.0406 107.173L48.5846 108.661H46.3099V108.644L49.2859 100.765H51.7019L54.6606 108.661H52.3846L51.9113 107.173H49.0406ZM50.4753 102.604L49.3379 106.157H51.5966L50.4753 102.604ZM93.7339 100.782L90.7926 108.678H88.4993L85.5579 100.782H87.8686L89.6539 106.858L91.4406 100.782H93.7339ZM76.8286 108.661H74.4313L71.8913 105.001V104.285H74.1513V101.797H71.2619V108.661H68.9499V100.782H75.0606C75.9699 100.782 76.4433 101.028 76.4433 101.501V104.37C76.4433 104.705 76.2153 104.914 75.7793 105.021C75.5499 105.072 75.0446 105.09 74.2899 105.09L76.8286 108.661ZM63.6806 104.074L64.7833 103.672V101.762H61.9126V104.074H63.6806ZM64.8366 107.664V105.422L63.7153 105.037H61.9126V107.664H64.8366ZM59.6019 108.661V100.782H65.7113C66.6219 100.782 67.0766 101.028 67.0766 101.501V103.532C67.0766 103.794 66.9019 104.005 66.5859 104.161C66.5339 104.178 66.1326 104.302 65.3793 104.548C66.1673 104.792 66.5699 104.933 66.6219 104.949C66.9726 105.106 67.1473 105.317 67.1473 105.598V107.944C67.1473 108.416 66.6913 108.661 65.7459 108.661H59.6019ZM37.6926 107.944C37.6926 108.416 37.2366 108.661 36.3073 108.661H31.6859C30.7579 108.661 30.3033 108.416 30.3033 107.944V106.069H32.5966V107.664H35.3979V106.122L30.7926 103.881C30.4606 103.724 30.3033 103.513 30.3033 103.25V101.501C30.3033 101.028 30.7579 100.782 31.6859 100.782H36.3073C37.2366 100.782 37.6926 101.01 37.6926 101.501V103.25H35.3979V101.762H32.5966V103.2L37.2006 105.422C37.5339 105.58 37.6926 105.79 37.6926 106.069V107.944ZM46.2006 101.816H43.6606V108.661H41.3859V101.816H38.8459V100.782H46.2006V101.816ZM18.9406 107.944C18.9406 108.416 18.4686 108.661 17.5233 108.661H12.7433C11.8326 108.661 11.3779 108.416 11.3779 107.944V101.501C11.3779 101.028 11.8326 100.782 12.7433 100.782H17.5233C18.4686 100.782 18.9406 101.028 18.9406 101.501V103.34H16.6473V101.797H13.6699V107.645H16.6473V105.982H18.9406V107.944ZM22.1099 108.661C21.1993 108.661 20.7446 108.416 20.7446 107.944V101.501C20.7446 101.028 21.1993 100.782 22.1099 100.782H27.0993C28.0273 100.782 28.4833 101.028 28.4833 101.501V107.944C28.4833 108.416 28.0273 108.661 27.0993 108.661H22.1099ZM26.1886 101.797H23.0379V107.645H26.1886V101.797Z" fill="white"/>
<path d="M77.7526 97.2144H61.058V83.781H67.4086V95.4144H77.7526V97.2144ZM101.87 95.9757C101.87 96.8064 100.579 97.2144 98.0153 97.2144H85.2433C82.6953 97.2144 81.4206 96.8064 81.4206 95.9757V92.781H87.7566V95.517H95.5193V92.8837L82.7966 89.0624C81.8806 88.773 81.4206 88.417 81.4206 87.9917V84.9864C81.4206 84.1864 82.6953 83.781 85.2433 83.781H98.0153C100.579 83.781 101.87 84.1864 101.87 84.969V87.9917H95.5193V85.4437H87.7566V87.8717L100.478 91.6784C101.413 91.9677 101.87 92.3237 101.87 92.781V95.9757ZM49.354 83.7464L57.5246 97.2144H51.2233L49.9326 94.6664H42.0006L40.71 97.2144H34.442V97.1797L42.6633 83.7464H49.354ZM45.9406 86.889L42.8326 92.9344H49.0486L45.9406 86.889ZM17.3393 92.341V97.2144H10.9873V83.781H27.6153C30.2126 83.781 31.4873 84.1864 31.4873 84.9864V91.0837C31.4873 91.9157 30.2126 92.341 27.6153 92.341H17.3393ZM25.1006 85.4784H17.3393V90.6077H25.1006V85.4784Z" fill="white"/>
<path d="M30.5488 47.3181L41.6368 40.0061V31.5394H47.3435V36.3674L56.6368 30.4354L83.2275 47.3181H71.4502L56.6368 37.4741L41.2222 47.1808L30.5488 47.3181Z" fill="white"/>
<path d="M30.5488 47.3181L41.6368 40.0061V31.5394H47.3435V36.3674L56.6368 30.4354L83.2275 47.3181H71.4502L56.6368 37.4741L41.2222 47.1808L30.5488 47.3181Z" stroke="white" stroke-width="0.364" stroke-miterlimit="3.864"/>
<path d="M55.8422 58.1604L58.9995 61.6777C58.8009 62.9937 60.4449 64.7697 60.4449 64.7697H58.6702V70.0964C58.0769 70.491 57.6835 71.7724 57.6835 71.7724L58.0115 73.023C56.8275 74.3364 58.4062 76.2444 58.4062 76.2444L58.4715 78.0857L57.7489 79.6644L57.8155 81.835C56.5649 82.3617 56.0395 84.103 56.0395 84.103L54.5915 82.131L53.4742 81.0457V64.703H51.7969C51.7969 64.703 53.3422 63.2564 53.3422 61.7444L55.8422 58.1604Z" fill="white"/>
<path d="M55.8422 58.1604L58.9995 61.6777C58.8009 62.9937 60.4449 64.7697 60.4449 64.7697H58.6702V70.0964C58.0769 70.491 57.6835 71.7724 57.6835 71.7724L58.0115 73.023C56.8275 74.3364 58.4062 76.2444 58.4062 76.2444L58.4715 78.0857L57.7489 79.6644L57.8155 81.835C56.5649 82.3617 56.0395 84.103 56.0395 84.103L54.5915 82.131L53.4742 81.0457V64.703H51.7969C51.7969 64.703 53.3422 63.2564 53.3422 61.7444L55.8422 58.1604Z" stroke="white" stroke-width="0.364" stroke-miterlimit="3.864"/>
<path d="M47.6602 53.411C47.6602 48.5363 51.6122 44.5843 56.4882 44.5843C61.3628 44.5843 65.3148 48.5363 65.3148 53.411C65.3148 58.287 61.3628 62.239 56.4882 62.239C51.6122 62.239 47.6602 58.287 47.6602 53.411Z" fill="white"/>
<path d="M54.126 49.7843C54.126 48.3856 55.2593 47.2536 56.6566 47.2536C58.0553 47.2536 59.1873 48.3856 59.1873 49.7843C59.1873 51.1829 58.0553 52.3149 56.6566 52.3149C55.2593 52.3149 54.126 51.1829 54.126 49.7843Z" fill="#293D9B"/>
<path d="M54.126 49.7843C54.126 48.3856 55.2593 47.2536 56.6566 47.2536C58.0553 47.2536 59.1873 48.3856 59.1873 49.7843C59.1873 51.1829 58.0553 52.3149 56.6566 52.3149C55.2593 52.3149 54.126 51.1829 54.126 49.7843Z" stroke="#293D9B" stroke-width="0.364" stroke-miterlimit="3.864"/>
</g>
</svg>
