<?xml version="1.0" encoding="UTF-8" standalone="no"?>
<svg
   xmlns:dc="http://purl.org/dc/elements/1.1/"
   xmlns:cc="http://creativecommons.org/ns#"
   xmlns:rdf="http://www.w3.org/1999/02/22-rdf-syntax-ns#"
   xmlns:svg="http://www.w3.org/2000/svg"
   xmlns="http://www.w3.org/2000/svg"
   viewBox="0 0 130.7272 80.463333"
   height="80.463333"
   width="130.7272"
   xml:space="preserve"
   id="svg2"
   version="1.1"><metadata
     id="metadata8"><rdf:RDF><cc:Work
         rdf:about=""><dc:format>image/svg+xml</dc:format><dc:type
           rdf:resource="http://purl.org/dc/dcmitype/StillImage" /></cc:Work></rdf:RDF></metadata><defs
     id="defs6"><clipPath
       id="clipPath36"
       clipPathUnits="userSpaceOnUse"><path
         id="path34"
         d="M 0,60.348 H 98.045 V 0 H 0 Z" /></clipPath></defs><g
     transform="matrix(1.3333333,0,0,-1.3333333,0,80.463333)"
     id="g10"><g
       transform="translate(12.8213,47.8882)"
       id="g12"><path
         id="path14"
         style="fill:#007eb2;fill-opacity:1;fill-rule:nonzero;stroke:none"
         d="M 0,0 H 12.083 L 11.892,-5.997 0,-14.912 Z" /></g><g
       transform="translate(13.854,46.8555)"
       id="g16"><path
         id="path18"
         style="fill:#ffffff;fill-opacity:1;fill-rule:nonzero;stroke:none"
         d="M 0,0 V -11.814 L 9.842,-4.435 9.984,0 Z M -2.066,-15.945 V 2.066 h 14.183 l -0.242,-7.559 z" /></g><g
       transform="translate(49.581,58.7493)"
       id="g20"><path
         id="path22"
         style="fill:#007eb2;fill-opacity:1;fill-rule:nonzero;stroke:none"
         d="m 0,0 -49.581,-36.945 v -12.777 l 49.873,37.17 48.172,-35.903 v 12.776 L 0.582,0 0.292,0.247 Z" /></g><g
       transform="translate(49.8726,60.3477)"
       id="g24"><path
         id="path26"
         style="fill:#ffffff;fill-opacity:1;fill-rule:nonzero;stroke:none"
         d="m 0,0 -0.934,-0.788 -48.939,-36.468 v -2.576 L 0,-2.669 48.173,-38.566 v 2.577 L 0.933,-0.788 Z m -49.873,-50.033 v -2.576 L 0,-15.439 48.173,-51.342 v 2.576 L 0,-12.862 Z" /></g><path
       id="path28"
       style="fill:#ffffff;fill-opacity:1;fill-rule:nonzero;stroke:none"
       d="M 0,0 H 98.045 V 23.702 H 0 Z" /><g
       id="g30"><g
         clip-path="url(#clipPath36)"
         id="g32"><g
           transform="translate(4.3506,12.3555)"
           id="g38"><path
             id="path40"
             style="fill:#007eb2;fill-opacity:1;fill-rule:nonzero;stroke:none"
             d="M 0,0 V 7.597 H 0.798 L 6.482,2.516 C 6.612,2.4 6.75,2.262 6.896,2.099 7.042,1.936 7.191,1.756 7.345,1.56 7.306,1.804 7.278,2.06 7.259,2.325 7.239,2.591 7.229,2.959 7.229,3.428 V 7.597 H 8.394 V 0 H 7.683 L 1.847,5.282 C 1.818,5.307 1.775,5.345 1.718,5.397 1.43,5.656 1.217,5.902 1.078,6.138 1.107,5.907 1.128,5.662 1.143,5.401 1.157,5.14 1.165,4.832 1.165,4.478 V 0 Z" /></g><g
           transform="translate(15.9468,12.3555)"
           id="g42"><path
             id="path44"
             style="fill:#007eb2;fill-opacity:1;fill-rule:nonzero;stroke:none"
             d="M 0,0 V 7.597 H 7.316 V 6.576 H 1.272 V 4.463 H 4.966 V 3.457 H 1.272 V 1.042 H 7.374 L 7.374,0 Z" /></g><g
           transform="translate(26.8604,12.3555)"
           id="g46"><path
             id="path48"
             style="fill:#007eb2;fill-opacity:1;fill-rule:nonzero;stroke:none"
             d="m 0,0 -2.752,7.597 h 1.279 L 0.582,1.56 2.825,7.597 H 3.601 L 5.764,1.56 7.84,7.597 H 8.976 L 6.224,0 H 5.282 L 3.176,5.742 0.999,0 Z" /></g><g
           transform="translate(42.3057,12.3555)"
           id="g50"><path
             id="path52"
             style="fill:#007eb2;fill-opacity:1;fill-rule:nonzero;stroke:none"
             d="M 0,0 V 7.597 H 1.271 V 4.492 H 7.258 V 7.597 H 8.523 V 0 H 7.258 V 3.442 H 1.271 V 0 Z" /></g><path
           id="path54"
           style="fill:#007eb2;fill-opacity:1;fill-rule:nonzero;stroke:none"
           d="m 55.203,13.412 h 6.288 v 5.505 h -6.288 z m -1.265,4.743 c 0,0.691 0.123,1.162 0.369,1.416 0.247,0.254 0.718,0.381 1.412,0.381 h 5.254 c 0.685,0 1.152,-0.126 1.399,-0.378 0.246,-0.251 0.369,-0.724 0.369,-1.419 v -4.003 c 0,-0.699 -0.123,-1.173 -0.369,-1.423 -0.247,-0.249 -0.714,-0.374 -1.399,-0.374 h -5.254 c -0.694,0 -1.165,0.127 -1.412,0.381 -0.246,0.254 -0.369,0.727 -0.369,1.416 z" /><g
           transform="translate(67.1294,19.9521)"
           id="g56"><path
             id="path58"
             style="fill:#007eb2;fill-opacity:1;fill-rule:nonzero;stroke:none"
             d="M 0,0 V -6.54 H 5.534 V 0 H 6.783 V -5.8 C 6.783,-6.499 6.66,-6.974 6.414,-7.223 6.167,-7.472 5.701,-7.597 5.016,-7.597 H 0.511 c -0.691,0 -1.16,0.127 -1.409,0.381 -0.249,0.254 -0.374,0.727 -0.374,1.416 V 0 Z" /></g><g
           transform="translate(83.6118,18.917)"
           id="g60"><path
             id="path62"
             style="fill:#007eb2;fill-opacity:1;fill-rule:nonzero;stroke:none"
             d="m 0,0 h -5.375 v -2.12 h 4.786 c 0.675,0 1.138,-0.125 1.387,-0.373 0.25,-0.25 0.374,-0.722 0.374,-1.416 v -0.856 c 0,-0.699 -0.122,-1.173 -0.366,-1.422 -0.245,-0.25 -0.71,-0.375 -1.395,-0.375 h -4.434 c -0.69,0 -1.16,0.126 -1.409,0.378 -0.249,0.251 -0.373,0.725 -0.373,1.419 v 0.208 l 1.178,0.274 v -1.222 h 5.656 v 2.285 h -4.771 c -0.691,0 -1.157,0.126 -1.403,0.378 -0.244,0.251 -0.366,0.725 -0.366,1.419 v 0.661 c 0,0.695 0.122,1.168 0.366,1.419 0.246,0.252 0.712,0.378 1.403,0.378 h 4.046 c 0.675,0 1.14,-0.124 1.397,-0.37 0.256,-0.247 0.384,-0.68 0.384,-1.298 V -0.791 L 0,-1.1 Z" /></g><g
           transform="translate(87.8853,12.3555)"
           id="g64"><path
             id="path66"
             style="fill:#007eb2;fill-opacity:1;fill-rule:nonzero;stroke:none"
             d="M 0,0 V 7.597 H 7.316 V 6.576 H 1.271 V 4.463 H 4.966 V 3.457 H 1.271 V 1.042 H 7.373 L 7.373,0 Z" /></g><path
           id="path68"
           style="fill:#007eb2;fill-opacity:1;fill-rule:nonzero;stroke:none"
           d="M 17.345,4.22 H 4.494 v 3.892 h 12.851 z" /><path
           id="path70"
           style="fill:#007eb2;fill-opacity:1;fill-rule:nonzero;stroke:none"
           d="M 95.278,4.22 H 81.72 v 3.892 h 13.558 z" /><g
           transform="translate(28.5815,7.8145)"
           id="g72"><path
             id="path74"
             style="fill:#007eb2;fill-opacity:1;fill-rule:nonzero;stroke:none"
             d="m 0,0 c 0.241,-0.259 0.375,-0.553 0.401,-0.882 h -0.46 c -0.052,0.25 -0.154,0.447 -0.307,0.594 -0.153,0.146 -0.368,0.219 -0.645,0.219 -0.337,0 -0.61,-0.134 -0.817,-0.403 -0.208,-0.268 -0.312,-0.68 -0.312,-1.234 0,-0.454 0.094,-0.823 0.282,-1.106 0.187,-0.283 0.467,-0.423 0.838,-0.423 0.342,0 0.603,0.148 0.782,0.445 0.094,0.157 0.165,0.363 0.212,0.618 H 0.435 C 0.394,-2.58 0.259,-2.923 0.031,-3.198 c -0.274,-0.333 -0.643,-0.499 -1.108,-0.499 -0.401,0 -0.737,0.136 -1.009,0.409 -0.359,0.361 -0.538,0.918 -0.538,1.672 0,0.571 0.134,1.041 0.403,1.407 0.292,0.397 0.693,0.597 1.205,0.597 C -0.58,0.388 -0.241,0.258 0,0" /></g><g
           transform="translate(33.5425,5.0713)"
           id="g76"><path
             id="path78"
             style="fill:#007eb2;fill-opacity:1;fill-rule:nonzero;stroke:none"
             d="m 0,0 c 0.186,0.332 0.279,0.714 0.279,1.145 0,0.456 -0.107,0.823 -0.322,1.101 -0.214,0.278 -0.507,0.417 -0.879,0.417 -0.361,0 -0.656,-0.138 -0.884,-0.413 -0.228,-0.275 -0.342,-0.682 -0.342,-1.219 0,-0.429 0.098,-0.792 0.293,-1.087 0.196,-0.295 0.513,-0.442 0.952,-0.442 0.416,0 0.717,0.166 0.903,0.498 M 0.417,2.471 C 0.648,2.128 0.764,1.688 0.764,1.154 c 0,-0.579 -0.133,-1.059 -0.397,-1.443 -0.31,-0.45 -0.753,-0.676 -1.327,-0.676 -0.537,0 -0.959,0.197 -1.267,0.591 -0.273,0.381 -0.41,0.86 -0.41,1.441 0,0.524 0.117,0.973 0.351,1.346 0.301,0.479 0.746,0.718 1.335,0.718 0.616,0 1.072,-0.221 1.368,-0.66" /></g><g
           transform="translate(36.6367,5.4707)"
           id="g80"><path
             id="path82"
             style="fill:#007eb2;fill-opacity:1;fill-rule:nonzero;stroke:none"
             d="m 0,0 c 0.011,-0.22 0.056,-0.398 0.135,-0.535 0.151,-0.258 0.417,-0.386 0.799,-0.386 0.17,0 0.326,0.028 0.466,0.085 0.272,0.108 0.408,0.304 0.408,0.585 C 1.808,-0.039 1.75,0.111 1.635,0.2 1.519,0.289 1.336,0.365 1.087,0.431 L 0.629,0.549 C 0.331,0.626 0.119,0.712 -0.005,0.805 -0.22,0.967 -0.328,1.209 -0.328,1.53 c 0,0.349 0.106,0.635 0.317,0.858 0.211,0.223 0.51,0.336 0.897,0.336 0.356,0 0.658,-0.099 0.906,-0.295 0.25,-0.197 0.374,-0.51 0.374,-0.941 H 1.722 C 1.699,1.696 1.651,1.855 1.577,1.966 1.438,2.168 1.204,2.27 0.873,2.27 0.605,2.27 0.414,2.204 0.296,2.074 0.18,1.944 0.122,1.793 0.122,1.62 0.122,1.431 0.19,1.291 0.329,1.203 0.419,1.147 0.624,1.076 0.943,0.992 L 1.417,0.868 C 1.646,0.809 1.822,0.727 1.946,0.623 2.161,0.441 2.268,0.179 2.268,-0.166 c 0,-0.43 -0.137,-0.736 -0.411,-0.921 -0.274,-0.184 -0.592,-0.277 -0.955,-0.277 -0.423,0 -0.755,0.123 -0.994,0.369 C -0.331,-0.75 -0.449,-0.419 -0.444,0 Z" /></g><g
           transform="translate(43.5674,8.0967)"
           id="g84"><path
             id="path86"
             style="fill:#007eb2;fill-opacity:1;fill-rule:nonzero;stroke:none"
             d="m 0,0 v -0.462 h -1.175 v -3.415 h -0.478 v 3.415 H -2.829 V 0 Z" /></g><g
           transform="translate(46.9043,5.8086)"
           id="g88"><path
             id="path90"
             style="fill:#007eb2;fill-opacity:1;fill-rule:nonzero;stroke:none"
             d="M 0,0 -0.537,1.713 -1.095,0 Z M -0.784,2.288 H -0.25 L 1.016,-1.589 H 0.499 l -0.365,1.161 h -1.368 l -0.379,-1.161 h -0.485 z" /></g><g
           transform="translate(53.8296,4.6689)"
           id="g92"><path
             id="path94"
             style="fill:#007eb2;fill-opacity:1;fill-rule:nonzero;stroke:none"
             d="M 0,0 C 0.293,0 0.501,0.093 0.626,0.279 0.704,0.397 0.743,0.54 0.743,0.707 0.743,0.988 0.629,1.18 0.4,1.282 0.279,1.337 0.119,1.364 -0.081,1.364 H -1.028 V 0 Z m -0.159,1.789 c 0.201,0 0.358,0.03 0.47,0.092 0.175,0.097 0.264,0.271 0.264,0.522 0,0.254 -0.094,0.424 -0.281,0.512 -0.106,0.05 -0.263,0.074 -0.47,0.074 h -0.852 v -1.2 z M -1.491,3.428 H 0.017 C 0.428,3.428 0.721,3.292 0.895,3.021 0.996,2.86 1.048,2.676 1.048,2.467 1.048,2.223 0.985,2.021 0.86,1.865 0.795,1.782 0.701,1.707 0.579,1.639 0.759,1.562 0.893,1.478 0.98,1.382 1.138,1.214 1.216,0.98 1.216,0.683 1.216,0.434 1.146,0.207 1.004,0.005 0.792,-0.298 0.454,-0.449 -0.007,-0.449 h -1.484 z" /></g><g
           transform="translate(58.645,6.3203)"
           id="g96"><path
             id="path98"
             style="fill:#007eb2;fill-opacity:1;fill-rule:nonzero;stroke:none"
             d="M 0,0 C 0.216,0 0.387,0.05 0.512,0.147 0.638,0.246 0.7,0.424 0.7,0.681 0.7,0.957 0.612,1.146 0.437,1.245 0.343,1.299 0.217,1.325 0.061,1.325 H -1.062 V 0 Z m -1.535,1.776 h 1.586 c 0.261,0 0.476,-0.043 0.646,-0.13 C 1.019,1.481 1.18,1.176 1.18,0.731 1.18,0.499 1.137,0.309 1.05,0.161 0.964,0.014 0.843,-0.105 0.688,-0.195 0.824,-0.257 0.927,-0.338 0.995,-0.437 1.064,-0.538 1.103,-0.701 1.11,-0.926 l 0.018,-0.52 C 1.132,-1.594 1.144,-1.704 1.16,-1.775 1.189,-1.898 1.239,-1.978 1.312,-2.013 V -2.101 H 0.733 c -0.016,0.035 -0.028,0.078 -0.038,0.13 -0.009,0.053 -0.017,0.155 -0.023,0.306 l -0.029,0.646 c -0.011,0.253 -0.093,0.423 -0.247,0.51 -0.087,0.047 -0.226,0.072 -0.414,0.072 h -1.044 v -1.664 h -0.473 z" /></g><g
           transform="translate(63.8267,5.8086)"
           id="g100"><path
             id="path102"
             style="fill:#007eb2;fill-opacity:1;fill-rule:nonzero;stroke:none"
             d="M 0,0 -0.537,1.713 -1.096,0 Z M -0.784,2.288 H -0.25 L 1.016,-1.589 H 0.498 l -0.364,1.161 h -1.368 l -0.379,-1.161 h -0.485 z" /></g><g
           transform="translate(66.646,8.0967)"
           id="g104"><path
             id="path106"
             style="fill:#007eb2;fill-opacity:1;fill-rule:nonzero;stroke:none"
             d="M 0,0 1.002,-3.302 1.992,0 h 0.53 L 1.249,-3.877 H 0.748 L -0.522,0 Z" /></g><g
           transform="translate(72.5151,5.8086)"
           id="g108"><path
             id="path110"
             style="fill:#007eb2;fill-opacity:1;fill-rule:nonzero;stroke:none"
             d="M 0,0 -0.537,1.713 -1.095,0 Z M -0.783,2.288 H -0.25 L 1.017,-1.589 H 0.499 l -0.365,1.161 h -1.368 l -0.379,-1.161 h -0.485 z" /></g></g></g></g></svg>